<svg id="visual" preserveAspectRatio="none" viewBox="0 0 900 600" width="900" height="600" xmlns="http://www.w3.org/2000/svg"
    xmlns:xlink="http://www.w3.org/1999/xlink" version="1.1">
    <rect x="0" y="0" width="900" height="600" fill="#5da399"></rect>
    <path
        d="M0 378L129 266L257 239L386 187L514 339L643 189L771 188L900 246L900 601L771 601L643 601L514 601L386 601L257 601L129 601L0 601Z"
        fill="#35393c"></path>
    <path
        d="M0 227L129 233L257 251L386 279L514 377L643 241L771 240L900 326L900 601L771 601L643 601L514 601L386 601L257 601L129 601L0 601Z"
        fill="#3d4f57"></path>
    <path
        d="M0 341L129 404L257 307L386 296L514 279L643 419L771 331L900 331L900 601L771 601L643 601L514 601L386 601L257 601L129 601L0 601Z"
        fill="#416771"></path>
    <path
        d="M0 454L129 341L257 413L386 364L514 385L643 419L771 403L900 345L900 601L771 601L643 601L514 601L386 601L257 601L129 601L0 601Z"
        fill="#428088"></path>
    <path
        d="M0 361L129 375L257 457L386 418L514 423L643 414L771 394L900 365L900 601L771 601L643 601L514 601L386 601L257 601L129 601L0 601Z"
        fill="#42858c"></path>
    <path
        d="M0 493L129 404L257 472L386 436L514 402L643 408L771 424L900 468L900 601L771 601L643 601L514 601L386 601L257 601L129 601L0 601Z"
        fill="#428088"></path>
    <path
        d="M0 481L129 502L257 449L386 439L514 468L643 492L771 444L900 469L900 601L771 601L643 601L514 601L386 601L257 601L129 601L0 601Z"
        fill="#416771"></path>
    <path
        d="M0 504L129 527L257 490L386 505L514 529L643 545L771 494L900 528L900 601L771 601L643 601L514 601L386 601L257 601L129 601L0 601Z"
        fill="#3d4f57"></path>
    <path
        d="M0 554L129 539L257 556L386 550L514 532L643 541L771 525L900 538L900 601L771 601L643 601L514 601L386 601L257 601L129 601L0 601Z"
        fill="#35393c"></path>
</svg>